<svg xmlns="http://www.w3.org/2000/svg" width="60" height="61" viewBox="0 0 60 61" fill="none">
  <path d="M58.5 39.1399H57V29.0055C57 27.8149 56.5219 26.6711 55.6781 25.8274L46.3125 16.4618C45.4688 15.618 44.325 15.1399 43.1344 15.1399H39V10.6399C39 8.15552 36.9844 6.13989 34.5 6.13989H10.5C8.01562 6.13989 6 8.15552 6 10.6399V15.1399H0.75C0.3375 15.1399 0 15.4774 0 15.8899V17.3899C0 17.8024 0.3375 18.1399 0.75 18.1399H26.25C26.6625 18.1399 27 18.4774 27 18.8899V20.3899C27 20.8024 26.6625 21.1399 26.25 21.1399H3.75C3.3375 21.1399 3 21.4774 3 21.8899V23.3899C3 23.8024 3.3375 24.1399 3.75 24.1399H23.25C23.6625 24.1399 24 24.4774 24 24.8899V26.3899C24 26.8024 23.6625 27.1399 23.25 27.1399H0.75C0.3375 27.1399 0 27.4774 0 27.8899V29.3899C0 29.8024 0.3375 30.1399 0.75 30.1399H20.25C20.6625 30.1399 21 30.4774 21 30.8899V32.3899C21 32.8024 20.6625 33.1399 20.25 33.1399H6V45.1399C6 50.1086 10.0312 54.1399 15 54.1399C19.9688 54.1399 24 50.1086 24 45.1399H36C36 50.1086 40.0312 54.1399 45 54.1399C49.9688 54.1399 54 50.1086 54 45.1399H58.5C59.325 45.1399 60 44.4649 60 43.6399V40.6399C60 39.8149 59.325 39.1399 58.5 39.1399ZM15 49.6399C12.5156 49.6399 10.5 47.6243 10.5 45.1399C10.5 42.6555 12.5156 40.6399 15 40.6399C17.4844 40.6399 19.5 42.6555 19.5 45.1399C19.5 47.6243 17.4844 49.6399 15 49.6399ZM45 49.6399C42.5156 49.6399 40.5 47.6243 40.5 45.1399C40.5 42.6555 42.5156 40.6399 45 40.6399C47.4844 40.6399 49.5 42.6555 49.5 45.1399C49.5 47.6243 47.4844 49.6399 45 49.6399ZM52.5 30.1399H39V19.6399H43.1344L52.5 29.0055V30.1399Z" fill="#7d7d7d"/>
</svg>