<svg xmlns="http://www.w3.org/2000/svg" width="60" height="61" viewBox="0 0 60 61" fill="none">
  <path d="M50.625 3.88989H9.375C7.88316 3.88989 6.45242 4.48252 5.39752 5.53742C4.34263 6.59231 3.75 8.02305 3.75 9.51489L3.75 50.7649C3.75 52.2567 4.34263 53.6875 5.39752 54.7424C6.45242 55.7973 7.88316 56.3899 9.375 56.3899H50.625C52.1168 56.3899 53.5476 55.7973 54.6025 54.7424C55.6574 53.6875 56.25 52.2567 56.25 50.7649V9.51489C56.25 8.02305 55.6574 6.59231 54.6025 5.53742C53.5476 4.48252 52.1168 3.88989 50.625 3.88989ZM48.7043 39.9098L46.9465 47.527C46.8572 47.9143 46.6393 48.2598 46.3284 48.5074C46.0174 48.7549 45.6318 48.8897 45.2344 48.8899C26.4844 48.8899 11.25 33.6895 11.25 14.9055C11.2639 14.5118 11.4039 14.133 11.6492 13.8248C11.8946 13.5166 12.2324 13.2953 12.6129 13.1934L20.2301 11.4356C20.36 11.4081 20.4922 11.3928 20.625 11.3899C20.9649 11.4071 21.2941 11.5149 21.5782 11.7022C21.8624 11.8895 22.0912 12.1495 22.241 12.4551L25.7566 20.6583C25.8427 20.8794 25.8907 21.1136 25.8984 21.3508C25.8698 21.8712 25.6384 22.3596 25.2539 22.7114L20.8137 26.3442C23.5041 32.0464 28.0935 36.6358 33.7957 39.3262L37.4285 34.886C37.7803 34.5015 38.2687 34.2701 38.7891 34.2415C39.0263 34.2491 39.2605 34.297 39.4816 34.3833L47.6848 37.8989C47.9906 38.0484 48.2507 38.2772 48.438 38.5615C48.6253 38.8457 48.7331 39.1749 48.75 39.5149C48.7477 39.6477 48.7323 39.78 48.7043 39.9098Z" fill="#7d7d7d"/>
</svg>