<svg width="87" height="87" viewBox="0 0 87 87" fill="none" xmlns="http://www.w3.org/2000/svg">
<rect x="2.09375" y="2.4502" width="83" height="83" rx="41.5" stroke="#7D0209" stroke-width="3"/>
<path d="M59.8438 28.9502H27.3438C25.2727 28.9502 23.5938 30.6291 23.5938 32.7002V55.2002C23.5938 57.2713 25.2727 58.9502 27.3438 58.9502H59.8438C61.9148 58.9502 63.5938 57.2713 63.5938 55.2002V32.7002C63.5938 30.6291 61.9148 28.9502 59.8438 28.9502ZM59.8438 32.7002V35.8881C58.092 37.3146 55.2994 39.5327 49.3291 44.2076C48.0134 45.2425 45.4072 47.7289 43.5938 47.6999C41.7806 47.7292 39.1735 45.2421 37.8584 44.2076C31.8891 39.5334 29.0957 37.3148 27.3438 35.8881V32.7002H59.8438ZM27.3438 55.2002V40.7C29.1339 42.1259 31.6726 44.1268 35.542 47.1568C37.2496 48.5009 40.24 51.4682 43.5938 51.4501C46.931 51.4682 49.8835 48.5439 51.6448 47.1574C55.5141 44.1275 58.0535 42.1261 59.8438 40.7001V55.2002H27.3438Z" fill="#7D0209"/>
</svg>
