<svg width="87" height="87" viewBox="0 0 87 87" fill="none" xmlns="http://www.w3.org/2000/svg">
<rect x="2.09375" y="2.4502" width="83" height="83" rx="41.5" stroke="#7D0209" stroke-width="3"/>
<path d="M36.1979 63.5569C26.0515 53.4105 26.0666 36.9747 36.1979 26.8434C36.6431 26.3982 37.3328 26.3253 37.8591 26.6542L42.9229 29.8192C43.1899 29.9861 43.3898 30.2415 43.4876 30.5408C43.5854 30.8401 43.5749 31.1642 43.458 31.4566L40.9261 37.7864C40.8179 38.0568 40.6248 38.2847 40.3758 38.4357C40.1268 38.5868 39.8355 38.6528 39.5457 38.6238L35.1856 38.1878C33.5409 42.7395 33.5752 47.7559 35.1856 52.2125L39.5458 51.7764C39.8356 51.7475 40.1269 51.8135 40.3759 51.9645C40.6249 52.1156 40.818 52.3435 40.9262 52.6139L43.4581 58.9437C43.575 59.236 43.5855 59.5602 43.4877 59.8595C43.3898 60.1588 43.19 60.4142 42.923 60.581L37.8592 63.7461C37.6016 63.907 37.2972 63.9759 36.9955 63.9416C36.6938 63.9072 36.4126 63.7716 36.1979 63.5569ZM47.9005 31.409C48.8249 32.9752 48.8249 34.9253 47.9005 36.4914C47.5919 37.0143 46.8764 37.1132 46.4381 36.6931L45.9713 36.2457C45.6658 35.9529 45.5969 35.494 45.7947 35.12C45.9851 34.7594 46.0846 34.3579 46.0846 33.9502C46.0846 33.5425 45.9851 33.141 45.7947 32.7805C45.5968 32.4064 45.6658 31.9475 45.9713 31.6547L46.4381 31.2074C46.8764 30.7872 47.5919 30.8861 47.9005 31.409ZM55.0713 24.285C59.7698 29.8791 59.766 38.0258 55.0713 43.6153C54.7218 44.0315 54.0924 44.0642 53.7001 43.6882L53.2471 43.2541C52.8909 42.9126 52.8583 42.3534 53.1745 41.9745C57.0563 37.3231 57.0531 30.5735 53.1745 25.9259C52.8583 25.547 52.8908 24.9878 53.2471 24.6463L53.7001 24.2121C54.0924 23.8361 54.7218 23.8689 55.0713 24.285ZM51.4798 27.796C54.2962 31.415 54.3007 36.4796 51.4798 40.1043C51.1368 40.545 50.4878 40.5927 50.0848 40.2062L49.6302 39.7703C49.2865 39.4407 49.2398 38.9035 49.5299 38.5257C51.603 35.8254 51.6028 32.0748 49.5299 29.3746C49.2398 28.9968 49.2865 28.4597 49.6302 28.13L50.0848 27.6942C50.4878 27.3077 51.1368 27.3553 51.4798 27.796Z" fill="#7D0209"/>
</svg>
