<svg width="151" height="151" viewBox="0 0 151 151" fill="none" xmlns="http://www.w3.org/2000/svg">
<rect width="300.004" height="24" transform="translate(17.7568 -79) rotate(45)" fill="black"/>
<path d="M102.397 17.7854C102.77 18.1588 103.022 18.5633 103.152 18.9988C103.282 19.4344 103.282 19.87 103.152 20.3056C103.033 20.7411 102.793 21.14 102.43 21.502C102.074 21.8584 101.678 22.0903 101.243 22.1978C100.813 22.3109 100.374 22.2968 99.9273 22.1554C99.4917 22.0139 99.0844 21.7537 98.7054 21.3747L97.5005 20.1698C97.4722 20.1415 97.4439 20.1415 97.4157 20.1698L95.2519 22.3336C95.2236 22.3618 95.1869 22.376 95.1416 22.376C95.1077 22.376 95.0766 22.3618 95.0483 22.3336L94.0555 21.3408C94.0272 21.3125 94.0102 21.2785 94.0046 21.239C94.0102 21.1994 94.0272 21.1654 94.0555 21.1371L99.8 15.3926C99.8283 15.3643 99.8594 15.3502 99.8934 15.3502C99.9386 15.3502 99.9754 15.3643 100.004 15.3926L102.397 17.7854ZM99.537 20.2886C99.7972 20.5488 100.08 20.6846 100.386 20.6959C100.697 20.7016 100.974 20.5828 101.217 20.3395C101.466 20.0906 101.588 19.8106 101.582 19.4995C101.576 19.1883 101.443 18.9027 101.183 18.6425L100.105 17.5648C100.077 17.5365 100.049 17.5365 100.021 17.5648L98.4594 19.1261C98.4311 19.1544 98.4311 19.1827 98.4594 19.211L99.537 20.2886ZM101.079 28.5505C100.637 28.1093 100.338 27.6285 100.179 27.1081C100.026 26.5933 100.018 26.0813 100.154 25.5722C100.295 25.0574 100.578 24.5879 101.002 24.1637L102.818 22.3478C103.237 21.9292 103.701 21.652 104.21 21.5162C104.719 21.3805 105.228 21.3918 105.737 21.5502C106.257 21.7086 106.738 22.0084 107.18 22.4496C107.626 22.8965 107.926 23.3774 108.079 23.8921C108.243 24.4069 108.257 24.9188 108.121 25.428C107.986 25.9371 107.708 26.4009 107.29 26.8196L105.474 28.6354C105.05 29.0597 104.58 29.3425 104.065 29.4839C103.551 29.6254 103.033 29.6169 102.513 29.4585C102.003 29.3001 101.525 28.9974 101.079 28.5505ZM102.105 27.5238C102.416 27.835 102.767 27.9877 103.157 27.982C103.548 27.9764 103.907 27.8095 104.235 27.4814L106.102 25.6146C106.43 25.2865 106.597 24.9273 106.603 24.537C106.619 24.1467 106.47 23.7931 106.153 23.4763C105.842 23.1652 105.488 23.0153 105.092 23.0266C104.707 23.0379 104.351 23.2076 104.023 23.5357L102.156 25.4025C101.828 25.7306 101.658 26.087 101.647 26.4717C101.641 26.862 101.794 27.2127 102.105 27.5238ZM112.73 28.1186C113.103 28.4919 113.355 28.8964 113.485 29.332C113.615 29.7676 113.615 30.2031 113.485 30.6387C113.366 31.0743 113.126 31.4731 112.764 31.8352C112.407 32.1915 112.011 32.4235 111.576 32.5309C111.146 32.6441 110.707 32.6299 110.26 32.4885C109.825 32.3471 109.418 32.0869 109.039 31.7079L107.834 30.503C107.805 30.4747 107.777 30.4747 107.749 30.503L105.585 32.6667C105.557 32.695 105.52 32.7091 105.475 32.7091C105.441 32.7091 105.41 32.695 105.381 32.6667L104.389 31.6739C104.36 31.6456 104.343 31.6117 104.338 31.5721C104.343 31.5325 104.36 31.4986 104.389 31.4703L110.133 25.7257C110.161 25.6975 110.193 25.6833 110.227 25.6833C110.272 25.6833 110.309 25.6975 110.337 25.7257L112.73 28.1186ZM109.87 30.6218C110.13 30.882 110.413 31.0177 110.719 31.029C111.03 31.0347 111.307 30.9159 111.55 30.6727C111.799 30.4238 111.921 30.1437 111.915 29.8326C111.909 29.5215 111.777 29.2358 111.516 28.9756L110.439 27.898C110.41 27.8697 110.382 27.8697 110.354 27.898L108.793 29.4593C108.764 29.4876 108.764 29.5158 108.793 29.5441L109.87 30.6218ZM111.48 38.9007C111.044 38.4651 110.744 37.9956 110.58 37.4921C110.422 36.9943 110.402 36.4993 110.521 36.0072C110.651 35.515 110.917 35.0682 111.318 34.6665L115.188 30.7972C115.216 30.7689 115.247 30.7548 115.281 30.7548C115.326 30.7548 115.363 30.7689 115.391 30.7972L116.384 31.79C116.412 31.8183 116.424 31.8522 116.418 31.8918C116.424 31.9314 116.412 31.9654 116.384 31.9937L112.506 35.8714C112.207 36.1712 112.054 36.505 112.048 36.8727C112.054 37.2404 112.207 37.5741 112.506 37.874C112.806 38.1738 113.137 38.3237 113.499 38.3237C113.872 38.3237 114.209 38.1738 114.509 37.874L118.387 33.9962C118.415 33.9679 118.446 33.9538 118.48 33.9538C118.525 33.9538 118.562 33.9679 118.59 33.9962L119.583 34.989C119.611 35.0172 119.623 35.0512 119.617 35.0908C119.623 35.1304 119.611 35.1643 119.583 35.1926L115.714 39.0619C115.312 39.4635 114.862 39.7266 114.365 39.851C113.878 39.9755 113.383 39.9557 112.88 39.7916C112.382 39.6332 111.915 39.3363 111.48 38.9007ZM114.831 42.1158C114.802 42.0875 114.785 42.0536 114.78 42.014C114.785 41.9744 114.802 41.9404 114.831 41.9122L120.567 36.1761C120.595 36.1478 120.626 36.1337 120.66 36.1337C120.705 36.1337 120.742 36.1478 120.77 36.1761L121.763 37.1689C121.791 37.1972 121.803 37.2311 121.797 37.2707C121.803 37.3103 121.791 37.3442 121.763 37.3725L116.994 42.1413C116.966 42.1695 116.966 42.1978 116.994 42.2261L119.769 45.0008C119.797 45.0291 119.809 45.063 119.803 45.1026C119.809 45.1422 119.797 45.1762 119.769 45.2044L118.946 46.0275C118.918 46.0558 118.881 46.0699 118.836 46.0699C118.802 46.0699 118.771 46.0558 118.742 46.0275L114.831 42.1158ZM123.501 50.7866C123.445 50.7301 123.436 50.665 123.476 50.5915L124.053 49.5054C124.064 49.4714 124.061 49.446 124.044 49.429L121.957 47.3416C121.94 47.3246 121.915 47.3218 121.881 47.3331L120.803 47.9186C120.729 47.9582 120.664 47.9497 120.608 47.8932L119.53 46.8155C119.496 46.7816 119.479 46.7476 119.479 46.7137C119.485 46.6741 119.513 46.6402 119.564 46.6119L127.133 42.7086C127.207 42.669 127.272 42.6775 127.328 42.7341L128.66 44.0663C128.717 44.1229 128.725 44.1879 128.686 44.2615L124.783 51.8303C124.777 51.8473 124.766 51.8643 124.749 51.8812C124.698 51.9321 124.641 51.9265 124.579 51.8643L123.501 50.7866ZM123.196 46.6288C123.156 46.6571 123.151 46.6854 123.179 46.7137L124.672 48.2071C124.706 48.2411 124.735 48.2354 124.757 48.1901L126.514 44.9063C126.531 44.878 126.531 44.8611 126.514 44.8554C126.502 44.8441 126.485 44.8441 126.463 44.8554L123.196 46.6288ZM128.677 55.9618C128.62 55.9052 128.606 55.8402 128.634 55.7666L129.924 52.3556C129.935 52.3216 129.93 52.2933 129.907 52.2707L129.118 51.4816C129.089 51.4533 129.061 51.4533 129.033 51.4816L126.716 53.7981C126.688 53.8263 126.651 53.8405 126.606 53.8405C126.572 53.8405 126.541 53.8263 126.513 53.7981L125.52 52.8053C125.492 52.777 125.475 52.743 125.469 52.7034C125.475 52.6639 125.492 52.6299 125.52 52.6016L131.256 46.8656C131.284 46.8373 131.315 46.8231 131.349 46.8231C131.395 46.8231 131.431 46.8373 131.46 46.8656L133.886 49.2924C134.249 49.6544 134.492 50.0447 134.616 50.4633C134.746 50.8876 134.749 51.309 134.625 51.7276C134.506 52.1519 134.268 52.5422 133.912 52.8986C133.527 53.2833 133.1 53.518 132.631 53.6029C132.167 53.6821 131.706 53.6057 131.248 53.3738C131.208 53.3568 131.18 53.3681 131.163 53.4077L129.915 56.9631C129.904 56.997 129.893 57.0196 129.881 57.0309C129.836 57.0762 129.782 57.0677 129.72 57.0055L128.677 55.9618ZM131.57 49.0293C131.542 49.001 131.513 49.001 131.485 49.0293L130.034 50.4803C130.006 50.5086 130.006 50.5369 130.034 50.5652L131.146 51.6767C131.383 51.9143 131.646 52.0359 131.935 52.0416C132.229 52.0529 132.489 51.9454 132.716 51.7192C132.942 51.4929 133.049 51.2327 133.038 50.9385C133.038 50.6444 132.919 50.3785 132.682 50.1409L131.57 49.0293Z" fill="white"/>
</svg>
