<svg width="16" height="14" viewBox="0 0 16 14" fill="none" xmlns="http://www.w3.org/2000/svg">
<g id="Icon">
<path id="Vector" d="M14.1901 7.33435C14.1901 7.40077 14.1663 7.45769 14.1189 7.50513L11.3866 10.024C11.3107 10.0904 11.2277 10.1047 11.1375 10.0667C11.0474 10.024 11.0023 9.95523 11.0023 9.86035V8.26648H2.1222C2.05579 8.26648 2.00123 8.24514 1.95854 8.20244C1.91585 8.15975 1.8945 8.1052 1.8945 8.03879V6.67261C1.8945 6.6062 1.91585 6.55165 1.95854 6.50896C2.00123 6.46626 2.05579 6.44492 2.1222 6.44492H11.0023V4.85105C11.0023 4.75143 11.0474 4.68265 11.1375 4.6447C11.2277 4.60675 11.3107 4.61861 11.3866 4.68028L14.1189 7.1707C14.1663 7.21814 14.1901 7.27269 14.1901 7.33435Z" fill="#898989"/>
</g>
</svg>
