<svg xmlns="http://www.w3.org/2000/svg" width="7" height="19" viewBox="0 0 7 19" fill="none">
  <g clip-path="url(#clip0_84_123)">
    <path d="M6.48333 5.81274C6.55029 5.87971 6.58378 5.95672 6.58378 6.04377C6.58378 6.13083 6.55029 6.20783 6.48333 6.2748L2.53578 10.2223L6.48333 14.1699C6.55029 14.2369 6.58378 14.3139 6.58378 14.4009C6.58378 14.488 6.55029 14.565 6.48333 14.6319L5.9811 15.1342C5.91413 15.2011 5.83712 15.2346 5.75007 15.2346C5.66302 15.2346 5.58601 15.2011 5.51904 15.1342L0.838239 10.4534C0.771275 10.3864 0.737793 10.3094 0.737793 10.2223C0.737793 10.1353 0.771275 10.0583 0.838239 9.99132L5.51904 5.31051C5.58601 5.24355 5.66302 5.21007 5.75007 5.21007C5.83712 5.21007 5.91413 5.24355 5.9811 5.31051L6.48333 5.81274Z" fill="black" fill-opacity="0.15"/>
  </g>
  <defs>
    <clipPath id="clip0_84_123">
      <rect width="6.44" height="18" fill="white" transform="matrix(1 0 0 -1 0.280029 18.5795)"/>
    </clipPath>
  </defs>
</svg>