<svg width="22" height="21" viewBox="0 0 22 21" fill="none" xmlns="http://www.w3.org/2000/svg">
<g id="Group">
<g id="Group_2">
<path id="Vector" d="M3.13202 4.25C4.09852 4.25 4.88202 3.4665 4.88202 2.5C4.88202 1.5335 4.09852 0.75 3.13202 0.75C2.16552 0.75 1.38202 1.5335 1.38202 2.5C1.38202 3.4665 2.16552 4.25 3.13202 4.25Z" stroke="#FAF9F4" stroke-width="1.5"/>
</g>
<g id="Group_3">
<path id="Vector_2" d="M11.132 4.25C12.0985 4.25 12.882 3.4665 12.882 2.5C12.882 1.5335 12.0985 0.75 11.132 0.75C10.1655 0.75 9.38202 1.5335 9.38202 2.5C9.38202 3.4665 10.1655 4.25 11.132 4.25Z" stroke="#FAF9F4" stroke-width="1.5"/>
</g>
<g id="Group_4">
<path id="Vector_3" d="M19.132 4.25C20.0985 4.25 20.882 3.4665 20.882 2.5C20.882 1.5335 20.0985 0.75 19.132 0.75C18.1655 0.75 17.382 1.5335 17.382 2.5C17.382 3.4665 18.1655 4.25 19.132 4.25Z" stroke="#FAF9F4" stroke-width="1.5"/>
</g>
<g id="Group_5">
<path id="Vector_4" d="M3.13202 12.25C4.09852 12.25 4.88202 11.4665 4.88202 10.5C4.88202 9.5335 4.09852 8.75 3.13202 8.75C2.16552 8.75 1.38202 9.5335 1.38202 10.5C1.38202 11.4665 2.16552 12.25 3.13202 12.25Z" stroke="#FAF9F4" stroke-width="1.5"/>
</g>
<g id="Group_6">
<path id="Vector_5" d="M11.132 12.25C12.0985 12.25 12.882 11.4665 12.882 10.5C12.882 9.5335 12.0985 8.75 11.132 8.75C10.1655 8.75 9.38202 9.5335 9.38202 10.5C9.38202 11.4665 10.1655 12.25 11.132 12.25Z" stroke="#FAF9F4" stroke-width="1.5"/>
</g>
<g id="Group_7">
<path id="Vector_6" d="M19.132 12.25C20.0985 12.25 20.882 11.4665 20.882 10.5C20.882 9.5335 20.0985 8.75 19.132 8.75C18.1655 8.75 17.382 9.5335 17.382 10.5C17.382 11.4665 18.1655 12.25 19.132 12.25Z" stroke="#FAF9F4" stroke-width="1.5"/>
</g>
<g id="Group_8">
<path id="Vector_7" d="M3.13202 20.25C4.09852 20.25 4.88202 19.4665 4.88202 18.5C4.88202 17.5335 4.09852 16.75 3.13202 16.75C2.16552 16.75 1.38202 17.5335 1.38202 18.5C1.38202 19.4665 2.16552 20.25 3.13202 20.25Z" stroke="#FAF9F4" stroke-width="1.5"/>
</g>
<g id="Group_9">
<path id="Vector_8" d="M11.132 20.25C12.0985 20.25 12.882 19.4665 12.882 18.5C12.882 17.5335 12.0985 16.75 11.132 16.75C10.1655 16.75 9.38202 17.5335 9.38202 18.5C9.38202 19.4665 10.1655 20.25 11.132 20.25Z" stroke="#FAF9F4" stroke-width="1.5"/>
</g>
<g id="Group_10">
<path id="Vector_9" d="M19.132 20.25C20.0985 20.25 20.882 19.4665 20.882 18.5C20.882 17.5335 20.0985 16.75 19.132 16.75C18.1655 16.75 17.382 17.5335 17.382 18.5C17.382 19.4665 18.1655 20.25 19.132 20.25Z" stroke="#FAF9F4" stroke-width="1.5"/>
</g>
</g>
</svg>
