<svg width="40" height="40" viewBox="0 0 40 40" fill="none" xmlns="http://www.w3.org/2000/svg">
<rect width="40" height="40" rx="20" fill="#B7472A"/>
<g clip-path="url(#clip0_84_58)">
<path d="M19.4187 20.5714V24C19.4187 24.4762 19.252 24.881 18.9187 25.2143C18.5853 25.5476 18.1806 25.7143 17.7044 25.7143H14.2758C13.7996 25.7143 13.3949 25.5476 13.0615 25.2143C12.7282 24.881 12.5615 24.4762 12.5615 24V17.7143C12.5615 17.0952 12.6821 16.5045 12.9231 15.942C13.1642 15.3795 13.4901 14.8929 13.9008 14.4822C14.3115 14.0714 14.7981 13.7455 15.3606 13.5045C15.9231 13.2634 16.5139 13.1429 17.133 13.1429H17.7044C17.8591 13.1429 17.9931 13.1994 18.1062 13.3125C18.2193 13.4256 18.2758 13.5595 18.2758 13.7143V14.8572C18.2758 15.0119 18.2193 15.1458 18.1062 15.2589C17.9931 15.372 17.8591 15.4286 17.7044 15.4286H17.133C16.502 15.4286 15.9633 15.6518 15.5169 16.0982C15.0705 16.5447 14.8472 17.0833 14.8472 17.7143V18C14.8472 18.2381 14.9306 18.4405 15.0972 18.6072C15.2639 18.7738 15.4663 18.8572 15.7044 18.8572H17.7044C18.1806 18.8572 18.5853 19.0238 18.9187 19.3572C19.252 19.6905 19.4187 20.0952 19.4187 20.5714ZM27.4187 20.5714V24C27.4187 24.4762 27.252 24.881 26.9187 25.2143C26.5853 25.5476 26.1806 25.7143 25.7044 25.7143H22.2758C21.7996 25.7143 21.3949 25.5476 21.0615 25.2143C20.7282 24.881 20.5615 24.4762 20.5615 24V17.7143C20.5615 17.0952 20.6821 16.5045 20.9231 15.942C21.1642 15.3795 21.4901 14.8929 21.9008 14.4822C22.3115 14.0714 22.7981 13.7455 23.3606 13.5045C23.9231 13.2634 24.5139 13.1429 25.133 13.1429H25.7044C25.8591 13.1429 25.9931 13.1994 26.1062 13.3125C26.2193 13.4256 26.2758 13.5595 26.2758 13.7143V14.8572C26.2758 15.0119 26.2193 15.1458 26.1062 15.2589C25.9931 15.372 25.8591 15.4286 25.7044 15.4286H25.133C24.502 15.4286 23.9633 15.6518 23.5169 16.0982C23.0705 16.5447 22.8472 17.0833 22.8472 17.7143V18C22.8472 18.2381 22.9306 18.4405 23.0972 18.6072C23.2639 18.7738 23.4663 18.8572 23.7044 18.8572H25.7044C26.1806 18.8572 26.5853 19.0238 26.9187 19.3572C27.252 19.6905 27.4187 20.0952 27.4187 20.5714Z" fill="white"/>
</g>
<defs>
<clipPath id="clip0_84_58">
<rect width="14.86" height="16" fill="white" transform="matrix(1 0 0 -1 12.5601 28)"/>
</clipPath>
</defs>
</svg>
