<svg xmlns="http://www.w3.org/2000/svg" width="7" height="19" viewBox="0 0 7 19" fill="none">
  <g clip-path="url(#clip0_84_127)">
    <path d="M6.16192 9.99132C6.22888 10.0583 6.26236 10.1353 6.26236 10.2223C6.26236 10.3094 6.22888 10.3864 6.16192 10.4534L1.48111 15.1342C1.41415 15.2011 1.33714 15.2346 1.25009 15.2346C1.16303 15.2346 1.08602 15.2011 1.01906 15.1342L0.516828 14.6319C0.449864 14.565 0.416382 14.488 0.416382 14.4009C0.416382 14.3139 0.449864 14.2369 0.516828 14.1699L4.46437 10.2223L0.516828 6.2748C0.449864 6.20783 0.416382 6.13083 0.416382 6.04377C0.416382 5.95672 0.449864 5.87971 0.516828 5.81274L1.01906 5.31051C1.08602 5.24355 1.16303 5.21007 1.25009 5.21007C1.33714 5.21007 1.41415 5.24355 1.48111 5.31051L6.16192 9.99132Z" fill="black" fill-opacity="0.15"/>
  </g>
  <defs>
    <clipPath id="clip0_84_127">
      <rect width="6.44" height="18" fill="white" transform="matrix(1 0 0 -1 0.280029 18.5795)"/>
    </clipPath>
  </defs>
</svg>