<svg width="23" height="23" viewBox="0 0 23 23" fill="none" xmlns="http://www.w3.org/2000/svg">
<path id="Vector" d="M9.752 19.496C7.98867 19.496 6.348 19.0513 4.83 18.162C3.358 17.3033 2.19267 16.138 1.334 14.666C0.444667 13.148 0 11.5073 0 9.744C0 7.98067 0.444667 6.34 1.334 4.822C2.19267 3.35 3.358 2.18467 4.83 1.326C6.348 0.436666 7.98867 -0.00799942 9.752 -0.00799942C11.5153 -0.00799942 13.156 0.436666 14.674 1.326C16.146 2.18467 17.3113 3.35 18.17 4.822C19.0593 6.34 19.504 7.98067 19.504 9.744C19.504 11.032 19.2587 12.274 18.768 13.47C18.2773 14.666 17.572 15.724 16.652 16.644C15.732 17.564 14.674 18.2693 13.478 18.76C12.282 19.2507 11.04 19.496 9.752 19.496ZM9.752 1.487C8.24933 1.487 6.86167 1.86267 5.589 2.614C4.347 3.35 3.358 4.339 2.622 5.581C1.87067 6.85367 1.495 8.24133 1.495 9.744C1.495 11.2467 1.87067 12.6343 2.622 13.907C3.358 15.149 4.347 16.138 5.589 16.874C6.86167 17.6253 8.24933 18.001 9.752 18.001C11.2547 18.001 12.6423 17.6253 13.915 16.874C15.157 16.138 16.146 15.149 16.882 13.907C17.6333 12.6343 18.009 11.2467 18.009 9.744C18.009 8.24133 17.6333 6.85367 16.882 5.581C16.146 4.339 15.157 3.35 13.915 2.614C12.6423 1.86267 11.2547 1.487 9.752 1.487ZM21.896 22.992C21.6813 23.0073 21.4973 22.946 21.344 22.808L15.41 16.851C15.318 16.759 15.2528 16.6478 15.2145 16.5175C15.1762 16.3872 15.1723 16.2607 15.203 16.138C15.2337 16.0153 15.2988 15.9042 15.3985 15.8045C15.4982 15.7048 15.6093 15.6397 15.732 15.609C15.8547 15.5783 15.9812 15.5783 16.1115 15.609C16.2418 15.6397 16.353 15.701 16.445 15.793L22.402 21.75C22.5553 21.888 22.632 22.0643 22.632 22.279C22.632 22.4937 22.5592 22.6738 22.4135 22.8195C22.2678 22.9652 22.0953 23.0227 21.896 22.992Z" fill="#000"/>
</svg>
