<svg width="12" height="13" viewBox="0 0 12 13" fill="none" xmlns="http://www.w3.org/2000/svg">
<g clip-path="url(#clip0_77_3097)">
<path d="M11.0446 5.22953C11.0446 5.32587 10.9877 5.43096 10.8739 5.5448L8.48962 7.86993L9.05448 11.154C9.05886 11.1847 9.06105 11.2284 9.06105 11.2854C9.06105 11.3773 9.03806 11.455 8.99208 11.5185C8.94611 11.582 8.87933 11.6138 8.79175 11.6138C8.70856 11.6138 8.62098 11.5875 8.52903 11.535L5.57993 9.98487L2.63083 11.535C2.5345 11.5875 2.44693 11.6138 2.36811 11.6138C2.27615 11.6138 2.20719 11.582 2.16121 11.5185C2.11523 11.455 2.09225 11.3773 2.09225 11.2854C2.09225 11.2591 2.09662 11.2153 2.10538 11.154L2.67024 7.86993L0.279438 5.5448C0.169969 5.42658 0.115234 5.32149 0.115234 5.22953C0.115234 5.06752 0.23784 4.96681 0.48305 4.9274L3.78026 4.44792L5.25809 1.45942C5.34129 1.27989 5.44857 1.19012 5.57993 1.19012C5.71129 1.19012 5.81857 1.27989 5.90177 1.45942L7.3796 4.44792L10.6768 4.9274C10.922 4.96681 11.0446 5.06752 11.0446 5.22953Z" fill="#363636"/>
</g>
<defs>
<clipPath id="clip0_77_3097">
<rect width="11.16" height="12" fill="white" transform="matrix(1 0 0 -1 0 12.98)"/>
</clipPath>
</defs>
</svg>
