<svg xmlns="http://www.w3.org/2000/svg" width="22" height="22" viewBox="0 0 22 22" fill="none">
  <path d="M19.0313 6.95276C19.0446 7.1393 19.0446 7.32588 19.0446 7.51242C19.0446 13.2021 14.7141 19.758 6.79908 19.758C4.36061 19.758 2.0954 19.0517 0.189941 17.8259C0.5364 17.8658 0.869488 17.8792 1.22928 17.8792C3.2413 17.8792 5.09348 17.1996 6.57255 16.0403C4.68041 16.0004 3.09475 14.7612 2.54842 13.0556C2.81494 13.0955 3.08142 13.1222 3.36127 13.1222C3.74768 13.1222 4.13413 13.0688 4.49388 12.9756C2.5218 12.5758 1.0427 10.8436 1.0427 8.75163V8.69835C1.61564 9.01814 2.28194 9.21801 2.98811 9.24463C1.82884 8.47178 1.06936 7.15263 1.06936 5.66024C1.06936 4.86076 1.28252 4.12789 1.65563 3.48829C3.7743 6.09996 6.95896 7.80552 10.53 7.9921C10.4634 7.6723 10.4234 7.33921 10.4234 7.00608C10.4234 4.63423 12.3422 2.70215 14.7273 2.70215C15.9665 2.70215 17.0858 3.22182 17.872 4.06128C18.8447 3.87474 19.7774 3.51496 20.6036 3.02195C20.2837 4.02133 19.6042 4.8608 18.7114 5.39376C19.5776 5.30053 20.417 5.06063 21.1899 4.72754C20.6037 5.5803 19.8708 6.33978 19.0313 6.95276Z" fill="#7A7A7A"/>
</svg>