<svg width="26" height="26" viewBox="0 0 26 26" fill="none" xmlns="http://www.w3.org/2000/svg">
<rect x="0.5" y="0.5" width="25" height="25" rx="12.5" stroke="#7D0209"/>
<path d="M18.0999 14.47L16.9187 15.6441C16.8286 15.7342 16.7218 15.7793 16.5985 15.7793C16.4752 15.7793 16.3684 15.7342 16.2783 15.6441L12.5 11.8658L8.72165 15.6441C8.63152 15.7342 8.52479 15.7793 8.40146 15.7793C8.27812 15.7793 8.17139 15.7342 8.08126 15.6441L6.90009 14.47C6.80996 14.3799 6.76489 14.272 6.76489 14.1463C6.76489 14.0206 6.80996 13.9127 6.90009 13.8225L12.1798 8.54996C12.2699 8.45983 12.3766 8.41476 12.5 8.41476C12.6233 8.41476 12.73 8.45983 12.8202 8.54996L18.0999 13.8225C18.19 13.9127 18.2351 14.0206 18.2351 14.1463C18.2351 14.272 18.19 14.3799 18.0999 14.47Z" fill="#7D0209"/>
</svg>
