<svg width="30" height="35" viewBox="0 0 30 35" fill="none" xmlns="http://www.w3.org/2000/svg">
<path d="M14.26 24.67L21.9608 16.9666C22.1756 16.7517 22.283 16.4972 22.283 16.2031C22.283 15.909 22.1756 15.6544 21.9608 15.4395L14.26 7.73619C14.0452 7.52126 13.7907 7.4138 13.4967 7.4138C13.2027 7.4138 12.9483 7.52126 12.7334 7.73619L11.0033 9.46689C10.7885 9.68181 10.681 9.93633 10.681 10.2304C10.681 10.5245 10.7885 10.7791 11.0033 10.994L16.2106 16.2031L11.0033 21.4122C10.7885 21.6271 10.681 21.8816 10.681 22.1757C10.681 22.4698 10.7885 22.7243 11.0033 22.9392L12.7334 24.67C12.9483 24.8849 13.2027 24.9923 13.4967 24.9923C13.7907 24.9923 14.0452 24.8849 14.26 24.67ZM26.4048 9.66202C26.4048 9.66202 26.696 10.1612 27.2784 11.1594C27.8607 12.1577 28.1519 13.8389 28.1519 16.2031C28.1519 18.5672 27.5695 20.7476 26.4048 22.7441C25.2401 24.7407 23.6598 26.3215 21.6639 27.4866C19.6681 28.6517 17.4885 29.2343 15.1251 29.2343C12.7617 29.2343 10.5821 28.6517 8.58623 27.4866C6.59037 26.3215 5.01008 24.7407 3.84535 22.7441C2.68063 20.7476 2.09827 18.5672 2.09827 16.2031C2.09827 13.8389 2.68063 11.6586 3.84535 9.66202C5.01008 7.66549 6.59037 6.08466 8.58623 4.91954C10.5821 3.75443 12.7617 3.17187 15.1251 3.17187C17.4885 3.17187 19.6681 3.75443 21.6639 4.91954C23.6598 6.08466 25.2401 7.66549 26.4048 9.66202Z" fill="#7D0209"/>
</svg>
