<svg xmlns="http://www.w3.org/2000/svg" width="22" height="22" viewBox="0 0 22 22" fill="none">
  <path d="M20.2294 6.42051C20.0005 5.55827 19.3258 4.87919 18.4691 4.64874C16.9163 4.22998 10.6899 4.22998 10.6899 4.22998C10.6899 4.22998 4.46359 4.22998 2.91079 4.64874C2.05413 4.87923 1.37943 5.55827 1.15044 6.42051C0.734375 7.98337 0.734375 11.2441 0.734375 11.2441C0.734375 11.2441 0.734375 14.5049 1.15044 16.0677C1.37943 16.93 2.05413 17.5808 2.91079 17.8112C4.46359 18.23 10.6899 18.23 10.6899 18.23C10.6899 18.23 16.9163 18.23 18.4691 17.8112C19.3258 17.5808 20.0005 16.93 20.2294 16.0677C20.6455 14.5049 20.6455 11.2441 20.6455 11.2441C20.6455 11.2441 20.6455 7.98337 20.2294 6.42051ZM8.65356 14.2047V8.2836L13.8576 11.2442L8.65356 14.2047Z" fill="#7A7A7A"/>
</svg>