<svg width="325" height="26" viewBox="0 0 325 26" fill="none" xmlns="http://www.w3.org/2000/svg">
<rect x="0.330078" y="13" width="101" height="1" fill="#9A9A9A"/>
<rect x="223.33" y="13" width="101" height="1" fill="#9A9A9A"/>
<g clip-path="url(#clip0_113_991)">
<path fill-rule="evenodd" clip-rule="evenodd" d="M166.61 10.6031C166.701 10.5622 166.771 10.4816 166.805 10.355C166.837 10.231 166.826 10.0586 166.74 9.8651C166.655 9.67161 166.479 9.46323 166.227 9.31563C165.975 9.16431 165.653 9.09112 165.338 9.11469C165.18 9.12089 164.981 9.16803 164.768 9.25361C164.557 9.33919 164.339 9.47315 164.144 9.64556C163.947 9.81797 163.772 10.0276 163.634 10.2558C163.495 10.4828 163.391 10.7271 163.321 10.9665C163.254 11.2059 163.22 11.4391 163.207 11.65C163.203 11.7554 163.202 11.8571 163.205 11.9501C163.213 12.0432 163.218 12.13 163.229 12.2081C163.241 12.2875 163.253 12.3582 163.265 12.4202C163.279 12.4822 163.297 12.5343 163.312 12.5777C163.341 12.6633 163.369 12.7092 163.392 12.7092C163.412 12.7092 163.44 12.6633 163.474 12.5827C163.508 12.4922 163.551 12.3793 163.601 12.2515C163.626 12.1846 163.659 12.1139 163.69 12.0382C163.725 11.9638 163.763 11.8856 163.802 11.8063C163.886 11.65 163.985 11.4912 164.097 11.3436C164.212 11.1985 164.34 11.067 164.474 10.9603C164.607 10.8537 164.745 10.7718 164.872 10.716C165 10.6589 165.117 10.6292 165.214 10.6155C165.237 10.6093 165.259 10.6093 165.281 10.6068C165.302 10.6044 165.322 10.6006 165.341 10.6006C165.359 10.6006 165.376 10.5994 165.392 10.5969C165.408 10.5969 165.421 10.5969 165.435 10.5957C165.541 10.5882 165.625 10.582 165.71 10.5783C165.795 10.5746 165.887 10.5721 165.99 10.5857C166.194 10.6056 166.422 10.6862 166.61 10.6031Z" fill="url(#paint0_linear_113_991)"/>
<path fill-rule="evenodd" clip-rule="evenodd" d="M163.447 8.88427C162.881 10.1891 162.728 12.0211 162.711 12.263C162.71 12.2779 162.7 12.2903 162.691 12.2903L162.138 12.9253C162.065 13.0097 161.935 13.0097 161.863 12.9253L161.311 12.2903C161.3 12.2903 161.291 12.2779 161.29 12.263C161.273 12.0211 161.143 10.3305 160.554 8.88427C160.549 8.87187 161.693 6.79676 161.949 6.36264C161.976 6.31923 162.026 6.31923 162.051 6.36264C162.309 6.79676 163.452 8.87311 163.447 8.88427Z" fill="url(#paint1_linear_113_991)"/>
<path fill-rule="evenodd" clip-rule="evenodd" d="M157.318 10.6031C157.227 10.5622 157.157 10.4816 157.123 10.355C157.091 10.231 157.102 10.0586 157.188 9.8651C157.273 9.67161 157.449 9.46323 157.701 9.31563C157.953 9.16431 158.275 9.09112 158.59 9.11469C158.748 9.12089 158.947 9.16803 159.159 9.25361C159.371 9.33919 159.589 9.47315 159.784 9.64556C159.981 9.81797 160.156 10.0276 160.294 10.2558C160.433 10.4828 160.537 10.7271 160.607 10.9665C160.674 11.2059 160.708 11.4391 160.721 11.65C160.725 11.7554 160.726 11.8571 160.722 11.9501C160.715 12.0432 160.71 12.13 160.699 12.2081C160.687 12.2875 160.675 12.3582 160.663 12.4202C160.649 12.4822 160.631 12.5343 160.616 12.5777C160.587 12.6633 160.559 12.7092 160.536 12.7092C160.516 12.7092 160.488 12.6633 160.454 12.5827C160.42 12.4922 160.377 12.3793 160.327 12.2515C160.302 12.1846 160.269 12.1139 160.238 12.0382C160.203 11.9638 160.165 11.8856 160.126 11.8063C160.042 11.65 159.943 11.4912 159.831 11.3436C159.716 11.1985 159.588 11.067 159.454 10.9603C159.321 10.8537 159.183 10.7718 159.055 10.716C158.928 10.6589 158.809 10.6292 158.714 10.6155C158.691 10.6093 158.668 10.6093 158.647 10.6068C158.625 10.6044 158.606 10.6006 158.587 10.6006C158.569 10.6006 158.552 10.5994 158.536 10.5969C158.52 10.5969 158.507 10.5969 158.493 10.5957C158.387 10.5882 158.303 10.582 158.217 10.5783C158.133 10.5746 158.041 10.5721 157.938 10.5857C157.734 10.6056 157.506 10.6862 157.318 10.6031Z" fill="url(#paint2_linear_113_991)"/>
<path fill-rule="evenodd" clip-rule="evenodd" d="M161.989 13.4297C161.989 13.4297 160.959 15.6524 161.989 15.6561C163.04 15.6599 162.049 13.297 161.989 13.4297Z" fill="url(#paint3_linear_113_991)"/>
<path fill-rule="evenodd" clip-rule="evenodd" d="M162.549 13.4361C162.549 13.4361 163.236 15.1391 163.76 14.5611C164.293 13.9719 162.506 13.3344 162.549 13.4361Z" fill="url(#paint4_linear_113_991)"/>
<path fill-rule="evenodd" clip-rule="evenodd" d="M161.43 13.5006C161.43 13.5006 159.643 13.8008 160.079 14.4483C160.525 15.1081 161.536 13.482 161.43 13.5006Z" fill="url(#paint5_linear_113_991)"/>
<path fill-rule="evenodd" clip-rule="evenodd" d="M202.865 9.19271C202.756 8.71393 202.584 8.27485 202.374 7.89158C202.164 7.50707 201.918 7.17714 201.669 6.89558C201.421 6.61154 201.138 6.36843 200.85 6.14268C200.776 6.08935 200.702 6.03477 200.628 5.98144C200.593 5.95415 200.554 5.92934 200.513 5.90454L200.394 5.82888C200.316 5.77802 200.234 5.73585 200.152 5.6912L200.03 5.62546L199.906 5.5684C199.573 5.41336 199.232 5.29553 198.888 5.21242C198.545 5.12932 198.2 5.07226 197.858 5.04373C197.174 4.98668 196.501 5.02513 195.856 5.138C195.534 5.1963 195.218 5.26948 194.912 5.36498C194.758 5.4084 194.608 5.46421 194.458 5.51631C194.383 5.5436 194.31 5.5746 194.237 5.60437C194.164 5.63414 194.09 5.66267 194.018 5.69616C193.948 5.72965 193.877 5.7619 193.805 5.79539C193.735 5.83012 193.666 5.86609 193.596 5.90206L193.494 5.95663L193.392 6.01493C193.325 6.05338 193.258 6.09307 193.192 6.13152C193.128 6.17369 193.063 6.21586 192.998 6.25804L192.902 6.32129L192.809 6.38951C192.748 6.43541 192.686 6.4813 192.625 6.52595C192.566 6.57433 192.508 6.6227 192.449 6.67107C192.389 6.71821 192.335 6.7703 192.28 6.8224C192.225 6.87325 192.167 6.9241 192.115 6.9762C192.011 7.08659 191.904 7.19078 191.811 7.30861C191.615 7.53188 191.452 7.77995 191.302 8.02926C191.269 8.09376 191.235 8.15825 191.201 8.22151L191.151 8.31702L191.107 8.41749C191.079 8.48323 191.051 8.54896 191.022 8.6147C190.998 8.68168 190.975 8.7499 190.952 8.81688L190.918 8.91735C190.908 8.95208 190.9 8.98681 190.891 9.0203C190.873 9.08852 190.856 9.15674 190.839 9.22495C190.825 9.29317 190.814 9.36263 190.803 9.43085L190.786 9.5338C190.781 9.56729 190.779 9.60202 190.775 9.63675C190.77 9.70497 190.764 9.77319 190.758 9.84017C190.757 9.90839 190.757 9.97661 190.756 10.0436V10.1453L190.763 10.2445C190.768 10.3103 190.773 10.3772 190.778 10.443C190.787 10.5075 190.797 10.572 190.807 10.6365C190.812 10.6687 190.817 10.701 190.823 10.732L190.845 10.8262C190.859 10.8895 190.873 10.9515 190.889 11.0123C190.908 11.0731 190.928 11.1326 190.946 11.1922C190.956 11.2219 190.964 11.2517 190.975 11.2815L191.009 11.367C191.033 11.4241 191.056 11.4812 191.079 11.537C191.106 11.5915 191.133 11.6461 191.16 11.6995L191.2 11.7801C191.213 11.8061 191.229 11.8309 191.245 11.8557C191.275 11.9066 191.305 11.9574 191.335 12.0071C191.366 12.0554 191.401 12.1026 191.433 12.1497C191.496 12.2452 191.572 12.3296 191.642 12.4151C191.931 12.7538 192.271 13.008 192.614 13.1879C192.957 13.369 193.307 13.4719 193.632 13.5141C193.957 13.555 194.259 13.5476 194.52 13.4967C194.553 13.4918 194.585 13.4868 194.616 13.4806C194.648 13.4719 194.678 13.4645 194.709 13.457C194.769 13.4421 194.827 13.4273 194.885 13.4124C194.995 13.3727 195.097 13.338 195.191 13.2995C195.28 13.2561 195.363 13.2164 195.441 13.178C195.469 13.1618 195.495 13.1457 195.52 13.1308C196.095 13.0303 196.533 12.523 196.533 11.9103C196.533 11.2256 195.987 10.6712 195.313 10.6712C194.641 10.6712 194.094 11.2256 194.094 11.9103C194.094 12.4461 194.431 12.9026 194.901 13.075C194.87 13.0812 194.841 13.0862 194.81 13.0936C194.758 13.0998 194.704 13.106 194.649 13.1135C194.621 13.1172 194.593 13.1209 194.565 13.1246C194.536 13.1271 194.506 13.1271 194.477 13.1283C194.243 13.1469 193.982 13.1271 193.707 13.0663C193.433 13.0055 193.146 12.8952 192.869 12.724C192.593 12.5516 192.322 12.3221 192.099 12.0269C192.044 11.9512 191.986 11.8793 191.938 11.7962C191.914 11.7553 191.887 11.7168 191.862 11.6746C191.84 11.6312 191.817 11.5891 191.795 11.5457C191.784 11.5246 191.772 11.5035 191.761 11.4812L191.732 11.4129C191.712 11.3683 191.693 11.3224 191.672 11.2765C191.656 11.2294 191.639 11.1822 191.622 11.1351L191.598 11.0632C191.59 11.0383 191.584 11.0135 191.577 10.99C191.563 10.9404 191.551 10.8907 191.538 10.8411C191.528 10.7903 191.518 10.7394 191.508 10.6886L191.494 10.6104C191.49 10.5856 191.488 10.5583 191.485 10.5323C191.479 10.4802 191.473 10.4281 191.467 10.3748C191.466 10.3214 191.465 10.2681 191.462 10.2148L191.46 10.1341L191.465 10.0523C191.467 9.99893 191.469 9.94436 191.472 9.88978C191.479 9.83521 191.485 9.78063 191.493 9.72606C191.496 9.69877 191.499 9.67024 191.504 9.64295L191.521 9.56109C191.533 9.50651 191.544 9.45194 191.556 9.39612C191.572 9.34279 191.588 9.28821 191.604 9.23364C191.612 9.20635 191.62 9.17782 191.628 9.15177L191.66 9.07115C191.681 9.01658 191.701 8.96324 191.722 8.90867C191.746 8.85533 191.772 8.80324 191.798 8.7499L191.836 8.67052L191.879 8.59238C191.909 8.54028 191.938 8.48819 191.969 8.43609C192.477 7.61374 193.33 6.93031 194.359 6.50363C194.421 6.47386 194.487 6.45029 194.553 6.42548C194.619 6.40068 194.683 6.37339 194.75 6.35106C194.885 6.30641 195.018 6.25928 195.157 6.22331C195.43 6.14268 195.714 6.08191 196.002 6.03477C196.578 5.94175 197.179 5.91694 197.776 5.97276C198.077 6.00004 198.373 6.05338 198.666 6.12656C198.959 6.1985 199.244 6.30021 199.515 6.42796L199.618 6.4751L199.717 6.52967C199.782 6.56564 199.85 6.59913 199.911 6.64131L200.006 6.70208C200.037 6.72069 200.069 6.74177 200.1 6.76534C200.163 6.81123 200.225 6.85713 200.289 6.90302C200.533 7.09651 200.772 7.29993 200.976 7.53684C201.182 7.77002 201.385 8.03918 201.557 8.35175C201.729 8.66432 201.87 9.01906 201.962 9.40977C202.053 9.80048 202.095 10.2272 202.074 10.6737C202.073 10.7853 202.057 10.8982 202.047 11.0111C202.036 11.1252 202.014 11.2393 201.997 11.3546C201.951 11.5853 201.898 11.8185 201.82 12.0505C201.749 12.2849 201.651 12.5156 201.548 12.7463C201.436 12.9745 201.317 13.2052 201.173 13.4248C201.036 13.648 200.876 13.8614 200.706 14.0722C200.617 14.174 200.532 14.2794 200.435 14.3774C200.388 14.4257 200.342 14.4778 200.292 14.5262C200.244 14.5733 200.194 14.6205 200.144 14.6689C200.095 14.7172 200.041 14.7631 199.989 14.8078C199.936 14.8537 199.885 14.8996 199.829 14.9455C199.715 15.0348 199.601 15.1253 199.485 15.2158C199.427 15.2617 199.37 15.3089 199.31 15.3523C199.25 15.3945 199.191 15.4379 199.131 15.4813C199.07 15.5235 199.01 15.5669 198.949 15.6103C198.889 15.6537 198.829 15.6983 198.766 15.7368C198.64 15.8174 198.515 15.898 198.388 15.9799C198.261 16.0593 198.128 16.13 197.997 16.2056C197.868 16.2838 197.731 16.3483 197.595 16.4165C197.526 16.45 197.458 16.4835 197.39 16.5182C197.321 16.5529 197.249 16.579 197.18 16.61C197.109 16.6398 197.038 16.6695 196.968 16.7005C196.898 16.7316 196.826 16.7613 196.753 16.7861C196.608 16.8382 196.461 16.8903 196.315 16.9424C196.166 16.9858 196.015 17.0305 195.864 17.0751C195.79 17.0999 195.712 17.1161 195.635 17.1347C195.558 17.1533 195.481 17.1719 195.403 17.1892C194.783 17.3294 194.142 17.4262 193.484 17.4844C193.32 17.5018 193.155 17.5093 192.989 17.5229L192.74 17.5403L192.49 17.5527C192.322 17.5589 192.155 17.5663 191.987 17.5738C191.818 17.5775 191.649 17.5812 191.48 17.5849C191.311 17.5899 191.141 17.5911 190.97 17.5911C190.801 17.5924 190.63 17.5936 190.459 17.5936C190.291 17.5899 190.122 17.5862 189.953 17.5824L189.699 17.5762C189.615 17.5738 189.531 17.5651 189.445 17.5601C189.276 17.5489 189.107 17.5378 188.938 17.5266C188.768 17.5142 188.598 17.4931 188.429 17.4758C188.088 17.446 187.75 17.3914 187.411 17.3455C187.242 17.3232 187.073 17.2885 186.905 17.2612C186.735 17.2302 186.566 17.2066 186.398 17.1694C186.06 17.1012 185.724 17.0367 185.389 16.9573C184.718 16.8097 184.053 16.6323 183.392 16.4537C182.731 16.2677 182.075 16.0766 181.426 15.877C180.776 15.6797 180.132 15.4776 179.494 15.2791C178.857 15.0806 178.22 14.8884 177.599 14.7011C176.356 14.3203 175.147 13.9333 173.97 13.622C173.382 13.4645 172.8 13.3305 172.23 13.2164C171.659 13.1035 171.098 13.0241 170.551 12.9659C169.455 12.8654 168.416 12.8902 167.483 13.0589C167.017 13.142 166.577 13.2598 166.177 13.4223C165.775 13.5835 165.414 13.7969 165.133 14.0698C164.993 14.2074 164.874 14.3575 164.784 14.5188C164.694 14.68 164.634 14.8487 164.597 15.0137C164.589 15.0558 164.582 15.0968 164.575 15.1377C164.567 15.1786 164.566 15.2196 164.562 15.2593C164.554 15.3399 164.553 15.4205 164.556 15.4974C164.566 15.6524 164.594 15.7963 164.636 15.929C164.717 16.1932 164.849 16.4091 164.998 16.5616C165.148 16.7142 165.318 16.7973 165.46 16.8221C165.603 16.8494 165.714 16.8283 165.785 16.8109C165.82 16.8023 165.846 16.7911 165.863 16.7849C165.881 16.7774 165.889 16.7737 165.889 16.7712C165.887 16.7675 165.851 16.7774 165.78 16.7886C165.711 16.7985 165.603 16.8085 165.47 16.775C165.338 16.744 165.186 16.6584 165.053 16.5083C164.919 16.3607 164.804 16.1511 164.736 15.8993C164.701 15.7728 164.68 15.6363 164.677 15.4924C164.676 15.4205 164.678 15.3473 164.689 15.2729C164.695 15.2357 164.697 15.1972 164.705 15.16C164.714 15.1216 164.721 15.0844 164.73 15.0459C164.769 14.8946 164.828 14.742 164.915 14.5969C165.002 14.453 165.115 14.3191 165.248 14.1963C165.515 13.9519 165.862 13.7597 166.25 13.6158C166.638 13.4707 167.067 13.369 167.522 13.3007C168.434 13.1593 169.449 13.1618 170.517 13.2846C171.051 13.3553 171.6 13.4459 172.159 13.5699C172.717 13.6952 173.288 13.8391 173.866 14.0077C175.024 14.3414 176.219 14.7532 177.458 15.16C178.081 15.3622 178.705 15.5656 179.339 15.7765C179.973 15.9873 180.614 16.2019 181.263 16.4128C181.911 16.6261 182.568 16.8308 183.231 17.0305C183.896 17.224 184.567 17.4162 185.248 17.5787C185.586 17.6655 185.93 17.7375 186.273 17.8144C186.442 17.8541 186.617 17.8814 186.789 17.9161C186.962 17.9471 187.133 17.9855 187.307 18.0116C187.655 18.0649 188.002 18.1269 188.351 18.1642C188.526 18.1852 188.7 18.2088 188.875 18.2262C189.05 18.2411 189.226 18.2547 189.4 18.2696C189.488 18.2758 189.576 18.2857 189.664 18.2894L189.926 18.3006C190.102 18.308 190.277 18.3142 190.452 18.3217C190.625 18.3229 190.797 18.3254 190.97 18.3279C191.142 18.3304 191.314 18.3316 191.488 18.3291C191.66 18.3291 191.832 18.3279 192.004 18.3266C192.176 18.3217 192.348 18.3167 192.52 18.313L192.776 18.3043L193.034 18.2907C193.205 18.2795 193.375 18.2746 193.546 18.2584C194.229 18.2088 194.908 18.117 195.573 17.9781C195.656 17.9595 195.738 17.9409 195.821 17.9223C195.904 17.9037 195.987 17.8876 196.067 17.8628C196.231 17.8169 196.393 17.7722 196.555 17.7263C196.715 17.6717 196.875 17.6172 197.033 17.5638C197.113 17.5378 197.19 17.5068 197.268 17.4745C197.345 17.4423 197.421 17.4113 197.498 17.379C197.575 17.3468 197.653 17.3195 197.729 17.2823C197.803 17.2463 197.878 17.2116 197.952 17.1756C198.101 17.1049 198.25 17.0354 198.391 16.9536C198.534 16.873 198.679 16.7985 198.817 16.7142C198.954 16.6286 199.091 16.5443 199.226 16.4587C199.294 16.4177 199.36 16.3719 199.425 16.326C199.49 16.2813 199.554 16.2354 199.619 16.1908C199.684 16.1461 199.748 16.1002 199.813 16.0556C199.878 16.0109 199.937 15.9613 200 15.9142C200.123 15.8199 200.246 15.7256 200.368 15.6314C200.428 15.583 200.489 15.5297 200.55 15.4788C200.611 15.4279 200.671 15.3783 200.728 15.3225C200.785 15.2692 200.843 15.2158 200.9 15.1625C200.956 15.1079 201.009 15.0509 201.064 14.9951C201.175 14.8847 201.273 14.7656 201.376 14.6515C201.572 14.4133 201.757 14.1715 201.918 13.9184C202.085 13.6679 202.224 13.4049 202.356 13.1445C202.478 12.879 202.592 12.6136 202.679 12.342C203.046 11.2629 203.084 10.149 202.865 9.19271Z" fill="url(#paint6_linear_113_991)"/>
<path fill-rule="evenodd" clip-rule="evenodd" d="M172.215 16.4662C172.202 16.4204 172.231 16.3645 172.305 16.2988C172.343 16.2653 172.392 16.2306 172.452 16.1934C172.481 16.1748 172.514 16.1537 172.55 16.1363C172.585 16.1202 172.624 16.1041 172.665 16.0879C172.995 15.9416 173.513 15.8486 174.144 15.8758C174.776 15.9019 175.504 16.0681 176.262 16.3335C176.641 16.47 177.028 16.63 177.418 16.8086C177.807 16.9884 178.198 17.1844 178.592 17.3829C180.182 18.168 183.588 20.1873 186.969 20.9638C188.651 21.3669 190.285 21.5145 191.488 21.5666C191.788 21.5765 192.062 21.5926 192.304 21.5988C192.546 21.6001 192.755 21.6025 192.927 21.6075C193.272 21.6162 193.466 21.6311 193.468 21.6534C193.469 21.6732 193.28 21.7117 192.937 21.7638C192.766 21.7898 192.558 21.8196 192.316 21.8518C192.073 21.8816 191.798 21.9002 191.493 21.9275C190.279 22.023 188.597 22.0416 186.816 21.7787C185.929 21.6373 185.017 21.4425 184.137 21.1858C183.917 21.125 183.701 21.0506 183.485 20.9836C183.376 20.9489 183.269 20.9141 183.161 20.8807C183.056 20.8434 182.95 20.8062 182.845 20.769C182.635 20.6934 182.428 20.6177 182.224 20.5445C182.022 20.4651 181.823 20.387 181.628 20.3088C181.431 20.2332 181.241 20.1538 181.054 20.0732C180.867 19.9938 180.686 19.9157 180.507 19.84C180.156 19.6825 179.822 19.5324 179.512 19.3885C178.893 19.0983 178.368 18.844 177.973 18.6418C177.585 18.4409 177.207 18.2449 176.832 18.0527C176.47 17.8654 176.122 17.6942 175.79 17.5379C175.124 17.2328 174.52 16.9971 174.003 16.8607C173.485 16.7218 173.056 16.6573 172.747 16.6287L172.636 16.6114L172.539 16.6014C172.476 16.594 172.423 16.5853 172.376 16.5729C172.286 16.5481 172.229 16.5134 172.215 16.4662Z" fill="url(#paint7_linear_113_991)"/>
<path fill-rule="evenodd" clip-rule="evenodd" d="M203 15.9863C203 15.9863 202.795 16.1674 202.44 16.4825C202.073 16.7963 201.525 17.2304 200.807 17.7166C200.084 18.1904 199.191 18.7176 198.136 19.1815C197.083 19.6429 195.869 20.0386 194.555 20.268C193.241 20.4987 191.958 20.5285 190.809 20.4094C190.737 20.4032 190.667 20.3995 190.596 20.3908C190.525 20.3796 190.454 20.3697 190.385 20.3598C190.246 20.3387 190.109 20.3176 189.974 20.2965C189.839 20.273 189.705 20.2606 189.577 20.2296C189.448 20.1998 189.321 20.17 189.195 20.1415C188.946 20.082 188.706 20.0348 188.474 19.9579C188.358 19.9244 188.247 19.8847 188.14 19.8463C188.032 19.8078 187.927 19.7694 187.827 19.7285C187.423 19.5697 187.072 19.4097 186.761 19.2782C186.606 19.2112 186.461 19.1517 186.326 19.0996C186.192 19.0438 186.069 19.0016 185.957 18.9619C185.901 18.9421 185.848 18.9222 185.798 18.9049C185.746 18.8863 185.698 18.8664 185.655 18.8453C185.57 18.8032 185.51 18.766 185.448 18.7585C185.388 18.7486 185.341 18.7548 185.31 18.7598C185.278 18.7647 185.261 18.7672 185.261 18.7672C185.261 18.7672 185.277 18.761 185.308 18.7498C185.338 18.7387 185.384 18.7213 185.45 18.7188C185.515 18.7114 185.6 18.7411 185.685 18.766C185.77 18.7895 185.87 18.7994 185.991 18.8205C186.11 18.8391 186.243 18.8602 186.386 18.8925C186.53 18.9222 186.685 18.9582 186.851 18.9991C187.183 19.0798 187.555 19.1864 187.963 19.2857C188.065 19.3129 188.17 19.3353 188.276 19.3576C188.382 19.3824 188.491 19.4047 188.601 19.4221C188.818 19.4668 189.058 19.4866 189.301 19.5164C189.423 19.5325 189.546 19.5461 189.671 19.5623C189.797 19.5796 189.926 19.5796 190.055 19.5895C190.186 19.597 190.318 19.6057 190.451 19.6131C190.518 19.6181 190.585 19.6218 190.652 19.6268C190.719 19.6292 190.787 19.628 190.856 19.628C191.953 19.6565 193.156 19.5722 194.401 19.3539C195.646 19.1368 196.815 18.8156 197.859 18.4509C198.903 18.085 199.819 17.6769 200.583 17.3123C201.341 16.9377 201.945 16.604 202.358 16.3634C202.765 16.124 203 15.9863 203 15.9863Z" fill="url(#paint8_linear_113_991)"/>
<path fill-rule="evenodd" clip-rule="evenodd" d="M121.134 9.18294C121.244 8.70416 121.416 8.26632 121.626 7.88181C121.836 7.4973 122.081 7.16737 122.331 6.88581C122.579 6.60177 122.862 6.35866 123.15 6.13292C123.224 6.07958 123.298 6.02625 123.372 5.97167C123.407 5.94439 123.446 5.91958 123.487 5.89477L123.606 5.82035C123.684 5.76826 123.766 5.72608 123.848 5.68143L123.97 5.61569L124.094 5.55864C124.426 5.40359 124.768 5.28576 125.112 5.20266C125.455 5.12079 125.8 5.0625 126.142 5.03397C126.826 4.97691 127.499 5.01536 128.144 5.12823C128.466 5.18653 128.782 5.25971 129.088 5.35522C129.242 5.39863 129.392 5.45445 129.542 5.50654C129.617 5.53383 129.69 5.56608 129.763 5.59461C129.836 5.62438 129.91 5.6529 129.98 5.68763C130.052 5.71988 130.123 5.75337 130.195 5.78562C130.265 5.82035 130.334 5.85756 130.403 5.89229L130.506 5.94687L130.608 6.00516C130.675 6.04361 130.742 6.0833 130.808 6.12176C130.872 6.16393 130.937 6.2061 131.002 6.24827L131.097 6.31153L131.191 6.37975C131.252 6.42564 131.313 6.47153 131.374 6.51619C131.434 6.56456 131.492 6.61417 131.551 6.66131C131.611 6.70844 131.665 6.76054 131.72 6.81263C131.776 6.86348 131.831 6.91434 131.885 6.96767C131.989 7.07807 132.096 7.18101 132.189 7.29885C132.384 7.52211 132.548 7.77018 132.698 8.01949C132.731 8.08399 132.765 8.14849 132.799 8.21175L132.849 8.30725L132.892 8.40648C132.921 8.47346 132.949 8.5392 132.978 8.60494C133.002 8.67316 133.025 8.74013 133.048 8.80711L133.082 8.90758C133.092 8.94231 133.1 8.97704 133.109 9.01053C133.126 9.07875 133.144 9.14697 133.161 9.21519C133.175 9.28341 133.186 9.35287 133.197 9.42109L133.214 9.52404C133.219 9.55753 133.221 9.59226 133.225 9.62699C133.23 9.6952 133.236 9.76342 133.242 9.83164C133.243 9.89862 133.243 9.96684 133.244 10.0338V10.1343L133.237 10.2348C133.232 10.3005 133.227 10.3675 133.222 10.4332C133.213 10.4977 133.203 10.5622 133.193 10.6267C133.187 10.659 133.183 10.6912 133.177 10.7222L133.155 10.8165C133.141 10.8797 133.127 10.9418 133.111 11.0025C133.092 11.0633 133.072 11.1228 133.054 11.1824C133.044 11.2122 133.036 11.2419 133.025 11.2717L132.991 11.3573C132.967 11.4143 132.944 11.4714 132.921 11.5272C132.894 11.5818 132.867 11.6364 132.84 11.6897L132.8 11.7691C132.786 11.7964 132.77 11.8212 132.755 11.846C132.725 11.8968 132.695 11.9477 132.665 11.9973C132.634 12.0457 132.599 12.0928 132.567 12.1399C132.502 12.2354 132.428 12.3198 132.357 12.4054C132.068 12.744 131.729 12.9983 131.386 13.1781C131.043 13.3592 130.693 13.4621 130.368 13.5043C130.043 13.5465 129.741 13.5378 129.48 13.487C129.447 13.4808 129.415 13.477 129.384 13.4708C129.352 13.4634 129.321 13.4547 129.291 13.4473C129.231 13.4324 129.173 13.4163 129.115 13.4026C129.005 13.3629 128.902 13.3282 128.809 13.2897C128.72 13.2463 128.637 13.2066 128.559 13.1682C128.531 13.1521 128.505 13.1359 128.478 13.1198C127.905 13.0206 127.467 12.5133 127.467 11.9005C127.467 11.2159 128.013 10.6614 128.686 10.6614C129.359 10.6614 129.906 11.2159 129.906 11.9005C129.906 12.4364 129.569 12.8928 129.099 13.0652C129.13 13.0714 129.159 13.0764 129.19 13.0838C129.242 13.09 129.296 13.0975 129.351 13.1037C129.379 13.1074 129.407 13.1111 129.435 13.1149C129.464 13.1173 129.494 13.1173 129.523 13.1186C129.757 13.1372 130.018 13.1173 130.293 13.0578C130.567 12.9958 130.854 12.8854 131.131 12.7142C131.407 12.5418 131.678 12.3123 131.901 12.0171C131.955 11.9427 132.014 11.8695 132.062 11.7864C132.086 11.7455 132.113 11.7071 132.138 11.6649C132.16 11.6215 132.182 11.5793 132.205 11.5359C132.216 11.5148 132.228 11.4937 132.239 11.4714L132.268 11.4032C132.288 11.3585 132.307 11.3126 132.328 11.2667C132.344 11.2196 132.361 11.1725 132.377 11.1253L132.402 11.0534C132.41 11.0286 132.416 11.0038 132.423 10.9802C132.435 10.9306 132.449 10.881 132.462 10.8314C132.472 10.7805 132.482 10.7297 132.491 10.6776L132.506 10.6007C132.51 10.5759 132.512 10.5486 132.515 10.5225C132.521 10.4704 132.527 10.4183 132.532 10.365C132.534 10.3117 132.535 10.2583 132.537 10.205L132.54 10.1244L132.535 10.0425C132.533 9.98917 132.531 9.93459 132.528 9.88002C132.521 9.82544 132.513 9.77087 132.507 9.71629C132.504 9.689 132.501 9.66047 132.496 9.63319L132.479 9.55132C132.467 9.49675 132.456 9.44217 132.444 9.38636C132.428 9.33302 132.412 9.27845 132.395 9.22387C132.388 9.19658 132.38 9.1693 132.371 9.14201L132.34 9.06139C132.319 9.00681 132.299 8.95348 132.278 8.8989C132.252 8.84681 132.228 8.79347 132.202 8.74013L132.164 8.66075L132.121 8.58261C132.091 8.53052 132.061 8.47842 132.031 8.42633C131.523 7.60397 130.67 6.92054 129.641 6.49386C129.578 6.46409 129.513 6.44053 129.447 6.41572C129.381 6.39091 129.317 6.36362 129.249 6.3413C129.115 6.29789 128.981 6.24951 128.843 6.21354C128.569 6.13292 128.286 6.07214 127.998 6.02625C127.42 5.93198 126.821 5.90717 126.223 5.96299C125.923 5.99028 125.627 6.04361 125.334 6.11679C125.04 6.18873 124.756 6.29044 124.484 6.4182L124.381 6.46657L124.283 6.51991C124.218 6.55588 124.15 6.58937 124.089 6.63154L123.994 6.69232C123.963 6.71092 123.931 6.73201 123.9 6.75557C123.837 6.80147 123.775 6.84736 123.711 6.89325C123.467 7.08675 123.228 7.29017 123.024 7.52707C122.817 7.76026 122.615 8.02941 122.443 8.34198C122.271 8.65455 122.13 9.00929 122.038 9.4C121.947 9.79071 121.905 10.2174 121.926 10.6639C121.927 10.7755 121.942 10.8884 121.952 11.0013C121.964 11.1154 121.986 11.2295 122.002 11.3449C122.049 11.5756 122.102 11.8088 122.18 12.0407C122.251 12.2751 122.348 12.5058 122.452 12.7378C122.564 12.9648 122.683 13.1955 122.827 13.415C122.964 13.6383 123.124 13.8516 123.294 14.0625C123.383 14.1642 123.468 14.2709 123.565 14.3676C123.612 14.416 123.657 14.4681 123.706 14.5164C123.756 14.5636 123.806 14.6107 123.856 14.6591C123.905 14.7075 123.958 14.7534 124.011 14.798C124.064 14.8439 124.115 14.8898 124.17 14.9357C124.285 15.025 124.399 15.1155 124.515 15.2073C124.574 15.252 124.63 15.2991 124.69 15.3425C124.75 15.3847 124.809 15.4281 124.869 15.4715C124.93 15.5149 124.99 15.5571 125.05 15.6005C125.111 15.6439 125.17 15.6886 125.234 15.727C125.36 15.8077 125.485 15.8895 125.611 15.9701C125.739 16.0495 125.872 16.1202 126.003 16.1959C126.132 16.274 126.269 16.3385 126.405 16.4067C126.474 16.4402 126.542 16.4737 126.61 16.5084C126.679 16.5432 126.749 16.5692 126.82 16.6002C126.89 16.63 126.962 16.661 127.031 16.6908C127.102 16.7205 127.173 16.7516 127.246 16.7764C127.392 16.8285 127.539 16.8806 127.685 16.9326C127.834 16.9773 127.985 17.0207 128.135 17.0654C128.21 17.0902 128.288 17.1063 128.365 17.1249C128.442 17.1435 128.519 17.1609 128.595 17.1795C129.217 17.3196 129.858 17.4164 130.515 17.4747C130.68 17.492 130.845 17.4995 131.011 17.5131L131.26 17.5305L131.51 17.5429C131.678 17.5491 131.845 17.5565 132.013 17.564C132.182 17.5677 132.35 17.5714 132.52 17.5751C132.689 17.5801 132.859 17.5814 133.03 17.5814C133.199 17.5826 133.37 17.5838 133.541 17.5838C133.709 17.5801 133.878 17.5764 134.047 17.5727L134.301 17.5665C134.385 17.564 134.469 17.5553 134.555 17.5516C134.723 17.5392 134.893 17.528 135.062 17.5169C135.232 17.5044 135.402 17.4834 135.571 17.466C135.91 17.4362 136.248 17.3817 136.589 17.3358C136.758 17.3122 136.927 17.2787 137.095 17.2514C137.264 17.2204 137.434 17.1968 137.602 17.1596C137.938 17.0914 138.276 17.0269 138.611 16.9475C139.282 16.7999 139.947 16.6226 140.608 16.4439C141.268 16.2579 141.925 16.0669 142.574 15.8672C143.224 15.67 143.868 15.4678 144.506 15.2693C145.143 15.0709 145.78 14.8786 146.4 14.6901C147.643 14.3105 148.853 13.9236 150.03 13.6122C150.618 13.4547 151.2 13.3207 151.77 13.2066C152.341 13.0938 152.902 13.0144 153.449 12.9561C154.545 12.8556 155.584 12.8804 156.517 13.0491C156.983 13.1322 157.423 13.25 157.823 13.4125C158.224 13.5738 158.586 13.7871 158.867 14.0612C159.007 14.1977 159.126 14.3478 159.216 14.509C159.306 14.6702 159.366 14.8389 159.402 15.0039C159.41 15.0461 159.417 15.087 159.425 15.1279C159.433 15.1689 159.433 15.2098 159.438 15.2507C159.446 15.3301 159.446 15.4107 159.442 15.4876C159.434 15.6427 159.406 15.7866 159.364 15.9193C159.283 16.1835 159.151 16.3993 159.001 16.5519C158.852 16.7044 158.682 16.7875 158.54 16.8123C158.396 16.8396 158.285 16.8185 158.215 16.8012C158.178 16.7925 158.154 16.7813 158.136 16.7751C158.119 16.7677 158.111 16.764 158.111 16.7615C158.113 16.7565 158.149 16.7677 158.22 16.7788C158.289 16.7888 158.397 16.7987 158.53 16.7652C158.662 16.7342 158.814 16.6486 158.947 16.4985C159.081 16.3509 159.196 16.1413 159.264 15.8895C159.299 15.763 159.319 15.6266 159.323 15.4827C159.324 15.4107 159.322 15.3376 159.311 15.2631C159.305 15.2259 159.303 15.1875 159.295 15.1503C159.286 15.1118 159.279 15.0746 159.27 15.0362C159.23 14.8848 159.17 14.7323 159.085 14.5871C158.998 14.4433 158.885 14.3093 158.752 14.1865C158.485 13.9422 158.138 13.7499 157.75 13.606C157.362 13.4609 156.933 13.3592 156.477 13.291C155.565 13.1496 154.551 13.1521 153.483 13.2749C152.949 13.3456 152.4 13.4361 151.841 13.5601C151.283 13.6854 150.712 13.8293 150.134 13.998C148.975 14.3329 147.781 14.7434 146.54 15.1503C145.919 15.3524 145.295 15.5559 144.66 15.7667C144.027 15.9776 143.386 16.1922 142.737 16.403C142.089 16.6164 141.432 16.821 140.769 17.0207C140.103 17.2142 139.433 17.4065 138.752 17.5689C138.414 17.6558 138.07 17.7277 137.727 17.8046C137.556 17.8443 137.383 17.8716 137.211 17.9063C137.038 17.9386 136.867 17.9758 136.693 18.0018C136.345 18.0552 135.998 18.1172 135.648 18.1544C135.474 18.1755 135.3 18.199 135.125 18.2164C134.949 18.2301 134.774 18.2449 134.599 18.2598C134.512 18.266 134.424 18.2759 134.336 18.2797L134.073 18.2908C133.898 18.2983 133.723 18.3045 133.548 18.3119C133.375 18.3144 133.202 18.3156 133.03 18.3181C132.858 18.3206 132.685 18.3218 132.512 18.3194C132.34 18.3194 132.168 18.3181 131.996 18.3169C131.824 18.3119 131.652 18.307 131.48 18.302L131.224 18.2946L130.966 18.2809C130.794 18.2697 130.623 18.2648 130.453 18.2487C129.771 18.199 129.092 18.1073 128.427 17.9683C128.344 17.9497 128.261 17.9311 128.179 17.9138C128.096 17.8939 128.013 17.8778 127.933 17.853C127.769 17.8071 127.606 17.7624 127.445 17.7165C127.285 17.662 127.125 17.6074 126.968 17.5541C126.887 17.528 126.81 17.497 126.732 17.4648C126.655 17.4325 126.579 17.4015 126.5 17.3705C126.425 17.337 126.347 17.3097 126.271 17.2725C126.197 17.2378 126.122 17.2018 126.048 17.1658C125.899 17.0939 125.75 17.0257 125.609 16.9438C125.466 16.8632 125.321 16.7888 125.183 16.7057C125.046 16.6188 124.909 16.5345 124.774 16.4489C124.704 16.408 124.64 16.3621 124.575 16.3162C124.51 16.2715 124.444 16.2256 124.381 16.181C124.315 16.1363 124.25 16.0905 124.187 16.0458C124.122 16.0011 124.063 15.9515 124 15.9044C123.877 15.8101 123.754 15.7159 123.632 15.6216C123.571 15.5732 123.511 15.5199 123.45 15.4703C123.389 15.4182 123.329 15.3686 123.272 15.3128C123.215 15.2594 123.157 15.2061 123.1 15.1527C123.044 15.0982 122.99 15.0411 122.936 14.9853C122.825 14.8761 122.726 14.7558 122.624 14.6417C122.428 14.4048 122.242 14.1617 122.081 13.9087C121.915 13.6581 121.775 13.3964 121.644 13.1347C121.522 12.8693 121.406 12.6038 121.321 12.3322C120.954 11.2531 120.916 10.1392 121.134 9.18294Z" fill="url(#paint9_linear_113_991)"/>
<path fill-rule="evenodd" clip-rule="evenodd" d="M151.785 16.4577C151.771 16.5036 151.714 16.5383 151.622 16.5631C151.577 16.5756 151.524 16.5855 151.461 16.5917L151.364 16.6028L151.253 16.619C150.944 16.6475 150.513 16.712 149.997 16.8509C149.48 16.9873 148.875 17.223 148.21 17.5281C147.878 17.6844 147.529 17.8556 147.166 18.0416C146.793 18.2351 146.415 18.4311 146.027 18.6321C145.631 18.8342 145.107 19.0897 144.488 19.3787C144.178 19.5239 143.844 19.6739 143.492 19.8315C143.316 19.9084 143.133 19.9865 142.946 20.0659C142.76 20.1465 142.57 20.2259 142.374 20.3028C142.178 20.3797 141.979 20.4591 141.777 20.5385C141.573 20.6117 141.366 20.6873 141.156 20.763C141.051 20.8002 140.946 20.8374 140.84 20.8758C140.732 20.9093 140.625 20.9441 140.516 20.9788C140.301 21.0458 140.086 21.1202 139.865 21.1822C138.985 21.439 138.073 21.6349 137.185 21.7763C135.403 22.0418 133.721 22.0244 132.506 21.9277C132.202 21.9004 131.927 21.8805 131.684 21.8508C131.442 21.8173 131.232 21.7875 131.061 21.7602C130.72 21.7056 130.529 21.6659 130.532 21.6436C130.533 21.6238 130.727 21.6114 131.072 21.6039C131.244 21.6002 131.453 21.5977 131.695 21.5965C131.938 21.5915 132.211 21.5754 132.512 21.5655C133.715 21.5159 135.349 21.367 137.032 20.9627C140.414 20.1825 143.818 18.1582 145.408 17.3731C145.802 17.1734 146.193 16.9787 146.582 16.7988C146.971 16.6202 147.359 16.4602 147.737 16.3238C148.496 16.0571 149.224 15.8921 149.856 15.8661C150.486 15.8388 151.005 15.9318 151.334 16.0782C151.376 16.0943 151.415 16.1104 151.45 16.1265C151.486 16.1439 151.519 16.165 151.548 16.1836C151.608 16.2208 151.657 16.2555 151.694 16.289C151.769 16.3548 151.798 16.4106 151.785 16.4577Z" fill="url(#paint10_linear_113_991)"/>
<path fill-rule="evenodd" clip-rule="evenodd" d="M121 15.9766C121 15.9766 121.235 16.1142 121.642 16.3536C122.054 16.5943 122.659 16.9267 123.417 17.3025C124.181 17.6672 125.097 18.0752 126.141 18.4411C127.184 18.8058 128.354 19.1271 129.599 19.3441C130.843 19.5624 132.047 19.6468 133.143 19.6182C133.211 19.6182 133.281 19.6195 133.348 19.617C133.415 19.6133 133.482 19.6083 133.549 19.6046C133.682 19.5959 133.814 19.5872 133.945 19.5798C134.074 19.5699 134.203 19.5699 134.328 19.5525C134.454 19.5364 134.577 19.5215 134.699 19.5066C134.942 19.4768 135.181 19.457 135.399 19.4123C135.509 19.395 135.618 19.3726 135.724 19.3478C135.83 19.3255 135.935 19.3032 136.036 19.2759C136.445 19.1767 136.817 19.07 137.149 18.9894C137.315 18.9484 137.47 18.9125 137.614 18.8827C137.757 18.8505 137.89 18.8294 138.008 18.8108C138.13 18.7897 138.23 18.7798 138.315 18.7549C138.4 18.7314 138.485 18.7016 138.55 18.7091C138.616 18.7115 138.662 18.7289 138.692 18.7401C138.723 18.7512 138.739 18.7574 138.739 18.7574C138.739 18.7574 138.722 18.7549 138.69 18.75C138.659 18.745 138.612 18.7388 138.552 18.7487C138.49 18.7562 138.43 18.7934 138.345 18.8356C138.302 18.8567 138.254 18.8765 138.202 18.8951C138.152 18.9125 138.098 18.9311 138.042 18.9522C137.931 18.9919 137.807 19.034 137.674 19.0898C137.539 19.1419 137.394 19.2015 137.239 19.2685C136.928 19.3999 136.577 19.5599 136.173 19.7187C136.073 19.7596 135.968 19.7981 135.86 19.8365C135.752 19.875 135.642 19.9147 135.525 19.9482C135.294 20.0251 135.054 20.0722 134.805 20.1317C134.679 20.1615 134.552 20.19 134.423 20.2198C134.295 20.2508 134.161 20.2645 134.025 20.2868C133.891 20.3079 133.753 20.329 133.615 20.35C133.545 20.36 133.475 20.3711 133.404 20.381C133.333 20.3897 133.263 20.3934 133.191 20.3997C132.042 20.5187 130.759 20.489 129.445 20.2583C128.131 20.0288 126.917 19.6331 125.864 19.1717C124.809 18.7078 123.916 18.1807 123.193 17.7069C122.475 17.2206 121.927 16.7865 121.56 16.4727C121.205 16.1577 121 15.9766 121 15.9766Z" fill="url(#paint11_linear_113_991)"/>
</g>
<defs>
<linearGradient id="paint0_linear_113_991" x1="165.012" y1="9.11035" x2="165.012" y2="12.7092" gradientUnits="userSpaceOnUse">
<stop offset="0.9999" stop-color="#999999"/>
<stop offset="1" stop-color="white" stop-opacity="0"/>
</linearGradient>
<linearGradient id="paint1_linear_113_991" x1="162.001" y1="6.33008" x2="162.001" y2="12.9886" gradientUnits="userSpaceOnUse">
<stop offset="0.9999" stop-color="#999999"/>
<stop offset="1" stop-color="white" stop-opacity="0"/>
</linearGradient>
<linearGradient id="paint2_linear_113_991" x1="158.916" y1="9.11035" x2="158.916" y2="12.7092" gradientUnits="userSpaceOnUse">
<stop offset="0.9999" stop-color="#999999"/>
<stop offset="1" stop-color="white" stop-opacity="0"/>
</linearGradient>
<linearGradient id="paint3_linear_113_991" x1="162" y1="13.4243" x2="162" y2="15.6561" gradientUnits="userSpaceOnUse">
<stop offset="0.9999" stop-color="#999999"/>
<stop offset="1" stop-color="white" stop-opacity="0"/>
</linearGradient>
<linearGradient id="paint4_linear_113_991" x1="163.204" y1="13.4253" x2="163.204" y2="14.6808" gradientUnits="userSpaceOnUse">
<stop offset="0.9999" stop-color="#999999"/>
<stop offset="1" stop-color="white" stop-opacity="0"/>
</linearGradient>
<linearGradient id="paint5_linear_113_991" x1="160.724" y1="13.5005" x2="160.724" y2="14.6059" gradientUnits="userSpaceOnUse">
<stop offset="0.9999" stop-color="#999999"/>
<stop offset="1" stop-color="white" stop-opacity="0"/>
</linearGradient>
<linearGradient id="paint6_linear_113_991" x1="183.777" y1="5.01758" x2="183.777" y2="18.3305" gradientUnits="userSpaceOnUse">
<stop offset="0.9999" stop-color="#999999"/>
<stop offset="1" stop-color="white" stop-opacity="0"/>
</linearGradient>
<linearGradient id="paint7_linear_113_991" x1="182.84" y1="15.8711" x2="182.84" y2="21.9921" gradientUnits="userSpaceOnUse">
<stop offset="0.9999" stop-color="#999999"/>
<stop offset="1" stop-color="white" stop-opacity="0"/>
</linearGradient>
<linearGradient id="paint8_linear_113_991" x1="194.131" y1="15.9863" x2="194.131" y2="20.4778" gradientUnits="userSpaceOnUse">
<stop offset="0.9999" stop-color="#999999"/>
<stop offset="1" stop-color="white" stop-opacity="0"/>
</linearGradient>
<linearGradient id="paint9_linear_113_991" x1="140.222" y1="5.00781" x2="140.222" y2="18.3207" gradientUnits="userSpaceOnUse">
<stop offset="0.9999" stop-color="#999999"/>
<stop offset="1" stop-color="white" stop-opacity="0"/>
</linearGradient>
<linearGradient id="paint10_linear_113_991" x1="141.16" y1="15.8613" x2="141.16" y2="21.9926" gradientUnits="userSpaceOnUse">
<stop offset="0.9999" stop-color="#999999"/>
<stop offset="1" stop-color="white" stop-opacity="0"/>
</linearGradient>
<linearGradient id="paint11_linear_113_991" x1="129.869" y1="15.9766" x2="129.869" y2="20.4681" gradientUnits="userSpaceOnUse">
<stop offset="0.9999" stop-color="#999999"/>
<stop offset="1" stop-color="white" stop-opacity="0"/>
</linearGradient>
<clipPath id="clip0_113_991">
<rect width="82" height="17" fill="white" transform="translate(121 5)"/>
</clipPath>
</defs>
</svg>
